<svg width="252.6" height="81.8" viewBox="0 0 252.6 81.8" xmlns="http://www.w3.org/2000/svg"><g id="svgGroup" stroke-linecap="round" fill-rule="evenodd" font-size="9pt" stroke="#ffffff" stroke-width="0.25mm" fill="#ffffff" style="stroke:#ffffff;stroke-width:0.25mm;fill:#ffffff"><path d="M 11.3 81 L 0 81 L 0 0 L 31.3 0 L 31.3 8.1 L 11.3 8.1 L 11.3 35.1 L 26.8 35.1 L 26.8 43.1 L 11.3 43.1 L 11.3 81 Z M 147.2 81 L 135.9 81 L 135.9 0 L 167.2 0 L 167.2 8.1 L 147.2 8.1 L 147.2 35.1 L 162.7 35.1 L 162.7 43.1 L 147.2 43.1 L 147.2 81 Z M 225.5 81 L 215.4 81 L 228.4 50.6 L 215.7 23.2 L 225.9 23.2 L 234.4 41.5 L 241.9 23.2 L 252.4 23.2 L 239.2 51.9 L 252.6 81 L 242.4 81 L 233.3 61.4 L 225.5 81 Z M 91.8 58.7 L 91.8 45.5 Q 91.8 37.8 93.3 32.7 Q 94.8 27.6 98.55 25 Q 102.3 22.4 108.9 22.4 Q 116.2 22.4 119.65 25.4 Q 123.1 28.4 124.2 34.05 Q 125.3 39.7 125.3 47.6 L 125.3 52.3 L 102.5 52.3 L 102.5 63.9 Q 102.5 67.4 103.15 69.6 Q 103.8 71.8 105.25 72.85 Q 106.7 73.9 109 73.9 Q 111.4 73.9 112.65 72.75 Q 113.9 71.6 114.35 69.45 Q 114.8 67.3 114.8 64.4 L 114.8 60.9 L 125.2 60.9 L 125.2 63.1 Q 125.2 71.8 121.5 76.8 Q 117.8 81.8 108.9 81.8 Q 102.1 81.8 98.4 79.15 Q 94.7 76.5 93.25 71.35 Q 91.8 66.2 91.8 58.7 Z M 208.7 81 L 198 81 L 198 0 L 208.7 0 L 208.7 81 Z M 72.1 81 L 61.4 81 L 61.4 23.2 L 72.1 23.2 L 72.1 31.4 Q 75.3 26.1 78.5 24.3 Q 81.7 22.5 84.9 22.5 L 85.65 22.5 Q 86 22.5 86.6 22.6 L 86.6 34.4 Q 85.4 33.9 83.85 33.55 Q 82.3 33.2 80.7 33.2 Q 78.2 33.2 76.15 34.35 Q 74.1 35.5 72.1 38.8 L 72.1 81 Z M 49.6 81 L 38.9 81 L 38.9 23.2 L 49.6 23.2 L 49.6 81 Z M 185.5 81 L 174.8 81 L 174.8 23.2 L 185.5 23.2 L 185.5 81 Z M 102.5 43.4 Q 102.5 38.4 103 35.55 Q 103.5 32.7 104.85 31.5 Q 106.2 30.3 108.8 30.3 Q 111.5 30.3 112.75 31.55 Q 114 32.8 114.4 35.25 Q 114.8 37.7 114.8 41.3 L 114.8 46.5 L 102.5 46.5 L 102.5 43.4 Z M 49.6 14.6 L 38.9 14.6 L 38.9 3.4 L 49.6 3.4 L 49.6 14.6 Z M 185.5 14.6 L 174.8 14.6 L 174.8 3.4 L 185.5 3.4 L 185.5 14.6 Z" vector-effect="non-scaling-stroke"/></g></svg>